<?xml version="1.0" encoding="UTF-8"?>
<svg viewBox="0 0 640 480" xmlns="http://www.w3.org/2000/svg" xmlns:xlink="http://www.w3.org/1999/xlink">
 <defs>
  <linearGradient id="c" x1="-.00872" x2="1.0088" y1=".50001" y2=".50001" xlink:href="#a"/>
  <linearGradient id="b" x1="-.001228" x2="1.0012" y1=".50001" y2=".50001" xlink:href="#a"/>
  <linearGradient id="d" x1="-.008629" x2="1.0086" y1=".5" y2=".5">
   <stop stop-color="#643312" offset="0"/>
   <stop stop-color="#d1966f" offset="1"/>
  </linearGradient>
  <linearGradient id="a">
   <stop stop-color="#888585" offset="0"/>
   <stop stop-color="#f6f6f6" offset=".5"/>
   <stop stop-color="#b3b3b3" offset="1"/>
  </linearGradient>
 </defs>
 <g stroke="#000">
  <path d="m42.875 238.12h59.257c14.479-0.74631 28.957 2.0897 43.436 1.3434 18.359 0.84695 31.344 1.2461 49.702-4.1761 22.091 9.0009 49.556 10.389 83.738 8.1953 58.816 0.87244 114.94 1.7449 173.76 4.4085 27.312 0.64026 60.445 3.9673 87.757 2.3686 39.078-1.2105 78.353-36.196 81.857 11.593 0.74316 10.136-8.9002 23.251-15.225 26.789-10.478 5.8606-13.282 9.1915-42.913-7.1927-25.107-3.641-88.355-0.77835-122.68-0.71973l-190.78-2.3564c-58.218 1.9961-47.923 8.4702-66.735 8.2274-13.125-0.6629-26.25-1.3258-39.376-1.9887-15.524 2.5375-32.39 2.3882-46.571 7.6125h-55.227v-54.104z" fill="url(#d)" stroke-opacity=".392"/>
  <g fill-rule="evenodd">
   <path d="m100.81 240.5c4.4329 13.203 10.338 20.486-3.7305 45.64-2.4905 4.4529-14.518 5.7788-15.422 10.688-9.1238 49.526-12.78 73.622 11.514 153.54-7.6348 2.9558-42.049 0.67737-45.882 0.67737 1.0491-31.664 9.8698-116.57-5.612-167.53-1.9246-6.3346-6.5452-15.263-6.5452-22.122 0-9.2571 4.6576-17.759 5.2601-26.676 7.7815-115.8 22.872-178.8 28.529-190.2 1.6578 17.916-15.942 108.62-0.98288 173.77 5.2154 22.712 19.573 10.15 32.872 22.211z" fill="url(#b)"/>
   <path d="m100.81 234.8c4.4329 13.203 9.7046 31.885-4.3637 57.039l-53.502-1.3533c-1.9246-6.3346-7.8117-22.229-7.8117-29.088 0-9.2571 1.4912-17.759 2.0937-26.676l63.584 0.078z" fill="url(#c)"/>
  </g>
 </g>
</svg>
