<svg width="280" height="629.9999999999999" xmlns="http://www.w3.org/2000/svg">

 <g label="Layer 1" id="imagebot_2">
  <g label="Layer 1" transform="translate(0 -2.44141) matrix(0.8816 0 0 0.8816 -25.6318 -2.63615)" id="imagebot_36">
   <path stroke-linecap="square" stroke-linejoin="round" stroke="#000000" stroke-width="1px" fill="#ff0000" d="M 45.714 375.22 L 177.144 23.79 L 334.294 366.65 L 185.714 703.79 L 45.714 375.22 Z" id="imagebot_48"/>
   <path stroke="#000000" stroke-linecap="square" stroke-linejoin="round" opacity="0.22124" fill="#ff0000" d="M 330.56 364.57 L 143.68 364.57 L 178.025 28.19 L 330.56 364.57 Z" id="imagebot_47"/>
   <path stroke="#000000" stroke-linecap="square" stroke-linejoin="round" opacity="0.54425" fill="#ff0000" d="M 177.14 23.791 L 184.283 406.651 L 332.853 366.651 L 177.14 23.791 Z" id="imagebot_46"/>
   <path stroke="#000000" stroke-linecap="square" stroke-linejoin="round" opacity="0.21239" fill="#ff0000" d="M 144.69 366.59 L 331.57 365.58 L 188.13 697.92 L 144.69 366.59 Z" id="imagebot_45"/>
   <path stroke="#000000" stroke-linecap="square" stroke-linejoin="round" fill="#ff0000" d="M 184.29 409.17 L 184.29 702.36 L 334.29 366.05 L 184.29 409.17 Z" id="imagebot_44"/>
   <path stroke="#000000" stroke-linecap="square" stroke-linejoin="round" fill="#ff0000" d="M 184.09 699.94 L 45.69 374.67 L 183.08 408 L 184.09 699.94 Z" id="imagebot_43"/>
   <path stroke="#000000" stroke-linecap="square" stroke-linejoin="round" fill="#ff0000" d="M 185.1 405.98 L 46.7 373.66 L 176 29.2 L 185.1 405.98 Z" id="imagebot_42"/>
   <path stroke="#000000" stroke-linecap="square" stroke-linejoin="round" opacity="0.27434" fill="#ff0000" d="M 141.66 368.61 L 185.1 698.93 L 46.7 375.68 L 141.66 368.61 Z" id="imagebot_41"/>
   <path stroke="#000000" stroke-linecap="square" stroke-linejoin="round" opacity="0.17699" fill="#ff0000" d="M 173.98 28.186 L 140.65 367.596 L 46.705 374.666 L 173.98 28.186 Z" id="imagebot_40"/>
   <path stroke="#000000" stroke-linecap="square" stroke-linejoin="round" fill="#ff0000" d="M 120.45 194.86 L 52.77 371.64 L 91.156 378.711 L 120.45 194.86 Z" id="imagebot_39"/>
   <path stroke="#000000" stroke-linecap="square" stroke-linejoin="round" opacity="0.5" fill="#ff0000" d="M 324.5 378.71 L 210.35 635.29 L 307.32 386.79 L 324.5 378.71 Z" id="imagebot_38"/>
   <path stroke="#000000" stroke-linecap="square" stroke-linejoin="round" opacity="0.38053" fill="#ff0000" d="M 182.57 204.46 L 187.621 401.94 L 211.865 393.354 L 182.57 204.46 Z" id="imagebot_37"/>
  </g>
  <title>Layer 1</title>
 </g>
 <metadata>image/svg+xmlOpenclipart</metadata>
</svg>